<svg width="598" height="430" viewBox="0 0 598 430" fill="none" xmlns="http://www.w3.org/2000/svg">
<path fill-rule="evenodd" clip-rule="evenodd" d="M302.283 98.0272L362.406 73.9638C365.092 72.9404 368.072 73.0132 370.706 74.1664C373.34 75.3196 375.418 77.4615 376.495 80.1326L411.857 169.15L201.306 170.267C200.972 170.232 200.636 170.215 200.299 170.217C198.469 170.211 196.681 170.764 195.172 171.803C193.664 172.841 192.507 174.315 191.855 176.029L176.474 216.66C172.228 214.002 167.796 211.609 163.2 209.504C138.701 198.281 111.076 195.928 85.0397 202.846C58.9531 209.983 36.2192 226.125 20.8484 248.424C20.0558 249.594 19.5146 250.916 19.2594 252.307C19.0041 253.698 19.0403 255.126 19.3655 256.502C19.6908 257.878 20.2981 259.172 21.1488 260.3C21.9996 261.428 23.0751 262.366 24.3072 263.055C26.5274 264.301 29.1326 264.667 31.609 264.082C34.0853 263.497 36.2531 262.003 37.6846 259.895C45.2995 248.914 55.0876 239.762 66.3358 232.941C66.3788 233.056 66.4248 233.169 66.4737 233.282L140.989 406.379C124.906 410.839 107.802 411.012 91.4154 406.684C67.8654 400.464 47.595 385.423 34.7853 364.662C23.2011 345.724 18.4938 323.358 21.4587 301.343C21.8503 298.821 21.2838 296.243 19.8712 294.119C18.4585 291.995 16.3025 290.48 13.829 289.872C12.4345 289.497 10.9762 289.423 9.55124 289.657C8.12623 289.89 6.76711 290.425 5.56423 291.225C4.36136 292.026 3.3423 293.074 2.57479 294.3C1.80728 295.526 1.30891 296.901 1.11282 298.335C-2.61424 325.192 3.0855 352.513 17.237 375.623C43.2797 418.499 105.538 440.319 152.893 423.954L154.368 423.444C169.587 417.971 183.488 409.353 195.171 398.15C206.854 386.947 216.058 373.409 222.187 358.412C225.61 350.035 228.032 341.308 229.418 332.413L272.222 352.987C274.006 353.858 276.028 354.111 277.971 353.705C279.913 353.299 281.666 352.257 282.954 350.744L284.124 349.367C284.493 348.941 284.82 348.483 285.101 347.998C285.615 347.585 286.089 347.122 286.516 346.614L420.187 190.12L428.742 211.655C412.168 220.253 397.822 232.833 387.075 248.424C386.282 249.594 385.741 250.916 385.486 252.307C385.231 253.698 385.267 255.126 385.592 256.502C385.917 257.878 386.525 259.172 387.375 260.3C388.226 261.428 389.302 262.366 390.534 263.055C392.754 264.301 395.359 264.667 397.836 264.082C400.312 263.497 402.48 262.003 403.911 259.895C412.366 247.703 423.499 237.766 436.336 230.771L473.443 324.182C474.529 326.882 476.637 329.04 479.305 330.186C481.974 331.333 484.987 331.374 487.686 330.3L490.89 329.026C492.234 328.492 493.46 327.698 494.497 326.688C495.534 325.679 496.362 324.474 496.934 323.143C497.506 321.812 497.81 320.382 497.829 318.933C497.848 317.484 497.581 316.045 497.045 314.7L460.167 221.72C480.631 217.036 502.1 219.218 521.249 227.985C541.417 237.218 557.761 253.182 567.492 273.15C578.072 295.136 579.83 320.353 572.404 343.601C564.977 366.848 548.932 386.352 527.579 398.09C506.225 409.827 481.192 412.904 457.642 406.684C434.092 400.464 413.822 385.423 401.012 364.662C389.428 345.724 384.72 323.358 387.685 301.343C388.077 298.821 387.51 296.243 386.098 294.119C384.685 291.995 382.529 290.48 380.056 289.872C378.661 289.497 377.203 289.423 375.778 289.657C374.353 289.89 372.994 290.425 371.791 291.225C370.588 292.026 369.569 293.074 368.801 294.3C368.034 295.526 367.535 296.901 367.339 298.335C363.612 325.192 369.312 352.513 383.464 375.623C409.506 418.499 471.765 440.319 519.12 423.954L520.595 423.444C535.813 417.971 549.715 409.353 561.398 398.15C573.081 386.947 582.285 373.409 588.414 358.412C594.542 343.415 597.459 327.295 596.974 311.097C596.49 294.898 592.615 278.983 585.6 264.381C573.779 240.122 553.925 220.726 529.427 209.504C505.33 198.466 478.208 196.008 452.549 202.513L400.249 70.65C399.181 67.9386 399.229 64.9135 400.383 62.2376C401.536 59.5617 403.702 57.4535 406.404 56.3751L495.621 21.2559C496.715 20.8495 497.717 20.2278 498.568 19.4273C499.419 18.6268 500.101 17.6637 500.575 16.5948C501.049 15.5259 501.305 14.3728 501.328 13.2033C501.35 12.0338 501.139 10.8715 500.707 9.78502L499.13 5.70654C498.719 4.61396 498.095 3.61409 497.295 2.76498C496.496 1.91588 495.536 1.23439 494.471 0.760126C493.406 0.285857 492.258 0.0282613 491.093 0.0021972C489.929 -0.0238669 488.77 0.182181 487.686 0.608353L294.349 77.3796C293.254 77.786 292.252 78.4078 291.401 79.2083C290.55 80.0088 289.868 80.9718 289.394 82.0407C288.92 83.1096 288.664 84.2628 288.641 85.4323C288.619 86.6018 288.83 87.764 289.262 88.8505L290.89 92.929C291.301 94.0155 291.923 95.0098 292.719 95.8547C293.515 96.6996 294.47 97.3784 295.529 97.8522C296.588 98.3259 297.73 98.5853 298.889 98.6153C300.048 98.6454 301.202 98.4455 302.283 98.0272ZM301.826 287.985L259.303 196.218C258.483 194.415 257.156 192.89 255.484 191.831C253.813 190.771 251.87 190.223 249.893 190.253L205.683 190.801L191.848 228.154C203.228 238.227 212.614 250.509 219.374 264.381C226.257 278.709 230.117 294.303 230.717 310.187L272.798 331.129L300.402 299.201C301.717 297.681 302.553 295.805 302.807 293.809C303.06 291.814 302.719 289.787 301.826 287.985ZM327.614 267.593L381.429 205.599C382.752 204.112 383.61 202.27 383.9 200.299C384.189 198.329 383.897 196.317 383.058 194.511C382.22 192.706 380.872 191.186 379.181 190.139C377.491 189.092 375.532 188.565 373.545 188.622L291.602 189.794C289.887 189.799 288.201 190.239 286.701 191.072C285.201 191.905 283.935 193.105 283.021 194.56C282.108 196.014 281.576 197.677 281.475 199.393C281.375 201.109 281.709 202.823 282.446 204.375L310.575 265.146C311.291 266.708 312.39 268.064 313.769 269.087C315.149 270.109 316.764 270.766 318.464 270.994C320.165 271.223 321.896 271.018 323.495 270.396C325.095 269.774 326.512 268.758 327.614 267.44V267.593ZM144.856 353.752L161.591 310.57C162.048 309.415 162.738 308.367 163.616 307.49C164.494 306.613 165.543 305.926 166.697 305.472C167.851 305.018 169.086 304.806 170.325 304.85C171.564 304.894 172.781 305.193 173.9 305.727L210.31 323.228C209.682 330.099 208.308 336.931 206.177 343.601C198.75 366.848 182.706 386.352 161.352 398.09C161.262 398.14 161.171 398.189 161.08 398.239L144.856 360.634C143.965 358.427 143.965 355.959 144.856 353.752ZM86.0253 223.911C86.1683 224.154 86.2978 224.406 86.4127 224.666L123.9 311.692C124.619 313.338 125.809 314.733 127.32 315.7C128.831 316.667 130.594 317.163 132.386 317.125C134.179 317.087 135.919 316.516 137.388 315.485C138.856 314.455 139.986 313.01 140.635 311.335L169.163 235.975C164.708 232.932 159.981 230.255 155.023 227.985C134.855 218.752 112.115 216.822 90.6857 222.525C89.1172 222.948 87.5633 223.41 86.0253 223.911ZM184.228 248.73L175.07 273.456C174.31 275.557 174.346 277.865 175.171 279.942C175.996 282.019 177.553 283.72 179.546 284.723L209.536 299.647C208.097 290.534 205.334 281.603 201.266 273.15C196.857 264.104 191.091 255.879 184.228 248.73ZM445.163 73.7091L423.138 82.529C421.208 83.2849 419.058 83.2487 417.154 82.4282C415.251 81.6076 413.746 80.0688 412.965 78.1445L411.541 74.4738C410.773 72.5402 410.802 70.38 411.622 68.468C412.443 66.5561 413.987 65.0488 415.915 64.2775L499.537 30.8844C500.492 30.4962 501.513 30.3018 502.543 30.3124C503.574 30.3231 504.591 30.5385 505.537 30.9464C506.484 31.3542 507.34 31.9463 508.056 32.6883C508.772 33.4303 509.335 34.3074 509.71 35.2688L511.185 38.8885C511.953 40.8221 511.924 42.9823 511.104 44.8942C510.283 46.8062 508.739 48.3136 506.811 49.0849L484.837 57.9047C483.639 58.3769 482.546 59.0818 481.621 59.979C480.695 60.8761 479.956 61.9479 479.446 63.1324C478.935 64.3169 478.663 65.5908 478.646 66.881C478.628 68.1712 478.866 69.4522 479.344 70.6502L515.814 161.449C516.292 162.647 516.529 163.928 516.512 165.218C516.494 166.508 516.222 167.782 515.712 168.967C515.201 170.151 514.462 171.223 513.537 172.12C512.612 173.017 511.518 173.722 510.32 174.194L507.014 175.52C505.822 176 504.547 176.241 503.262 176.227C501.977 176.212 500.708 175.944 499.527 175.438C498.345 174.931 497.275 174.195 496.378 173.273C495.481 172.351 494.774 171.261 494.298 170.065L457.879 79.2151C456.905 76.8074 455.026 74.8801 452.647 73.8499C450.267 72.8196 447.579 72.769 445.163 73.7091ZM436.007 86.9642L433.005 87.9838C431.668 88.5157 430.45 89.3093 429.422 90.3182C428.394 91.327 427.577 92.5311 427.018 93.8599C426.46 95.1887 426.171 96.6158 426.168 98.0578C426.165 99.4998 426.449 100.928 427.003 102.259L458.59 181.892C459.655 184.559 461.729 186.694 464.36 187.831C466.991 188.968 469.964 189.014 472.629 187.959L475.783 186.685C478.447 185.607 480.578 183.519 481.711 180.873C482.845 178.228 482.89 175.241 481.836 172.563L450.096 93.031C449.021 90.361 446.937 88.225 444.298 87.0886C441.659 85.9522 438.678 85.9075 436.007 86.9642Z" fill="#607556"/>
</svg>
